<mxfile host="app.diagrams.net" modified="2022-07-18T02:58:26.934Z" agent="5.0 (Macintosh)" etag="mA5z6H_pFZRFpyr6QnEc" version="19.0.2" type="github">
  <diagram id="eomEjEWnQX8f18CMvut-" name="Page-1">
    <mxGraphModel dx="1263" dy="562" grid="1" gridSize="10" guides="1" tooltips="1" connect="1" arrows="1" fold="1" page="1" pageScale="1" pageWidth="850" pageHeight="1100" math="0" shadow="0">
      <root>
        <mxCell id="0" />
        <mxCell id="1" parent="0" />
        <mxCell id="GJdHI24QevvxGz49E9Zf-1" value="" style="rounded=0;whiteSpace=wrap;html=1;" vertex="1" parent="1">
          <mxGeometry x="360" y="230" width="120" height="60" as="geometry" />
        </mxCell>
      </root>
    </mxGraphModel>
  </diagram>
</mxfile>
